<svg xmlns="http://www.w3.org/2000/svg" viewBox="0 0 1000 1000">
  <!-- Black background -->
  <rect width="100%" height="100%" fill="#000"/>
  
  <!-- Small stars (various opacities) -->
  <g fill="white">
    <!-- Layer 1: Tiny stars -->
    <g opacity="0.6">
      <circle cx="50" cy="75" r="0.8"/>
      <circle cx="120" cy="30" r="0.6"/>
      <circle cx="200" cy="120" r="0.7"/>
      <circle cx="280" cy="50" r="0.6"/>
      <circle cx="350" cy="180" r="0.7"/>
      <circle cx="400" cy="30" r="0.8"/>
      <circle cx="480" cy="90" r="0.6"/>
      <circle cx="550" cy="40" r="0.7"/>
      <circle cx="600" cy="150" r="0.8"/>
      <circle cx="670" cy="60" r="0.6"/>
      <circle cx="720" cy="200" r="0.7"/>
      <circle cx="800" cy="70" r="0.6"/>
      <circle cx="850" cy="140" r="0.8"/>
      <circle cx="920" cy="50" r="0.7"/>
      <circle cx="970" cy="190" r="0.6"/>
      <!-- Additional stars for higher density -->
      <circle cx="30" cy="25" r="0.7"/>
      <circle cx="90" cy="80" r="0.6"/>
      <circle cx="160" cy="40" r="0.8"/>
      <circle cx="230" cy="130" r="0.6"/>
      <circle cx="310" cy="95" r="0.7"/>
      <circle cx="375" cy="15" r="0.6"/>
      <circle cx="440" cy="110" r="0.8"/>
      <circle cx="515" cy="65" r="0.7"/>
      <circle cx="580" cy="20" r="0.6"/>
      <circle cx="645" cy="175" r="0.8"/>
      <circle cx="710" cy="85" r="0.7"/>
      <circle cx="775" cy="35" r="0.6"/>
      <circle cx="835" cy="95" r="0.8"/>
      <circle cx="890" cy="160" r="0.7"/>
      <circle cx="950" cy="25" r="0.6"/>
    </g>
    
    <!-- Layer 2: Medium-small stars -->
    <g opacity="0.8">
      <circle cx="25" cy="220" r="1.0"/>
      <circle cx="80" cy="290" r="0.9"/>
      <circle cx="150" cy="240" r="1.1"/>
      <circle cx="210" cy="310" r="0.9"/>
      <circle cx="270" cy="260" r="1.0"/>
      <circle cx="330" cy="330" r="1.1"/>
      <circle cx="400" cy="250" r="0.9"/>
      <circle cx="460" cy="320" r="1.0"/>
      <circle cx="530" cy="270" r="1.1"/>
      <circle cx="590" cy="330" r="0.9"/>
      <circle cx="650" cy="280" r="1.0"/>
      <circle cx="720" cy="340" r="1.1"/>
      <circle cx="780" cy="290" r="0.9"/>
      <circle cx="840" cy="330" r="1.0"/>
      <circle cx="900" cy="270" r="1.1"/>
      <circle cx="960" cy="320" r="0.9"/>
      <!-- Additional stars for higher density -->
      <circle cx="50" cy="245" r="1.0"/>
      <circle cx="115" cy="275" r="0.9"/>
      <circle cx="175" cy="225" r="1.1"/>
      <circle cx="245" cy="295" r="0.9"/>
      <circle cx="300" cy="245" r="1.0"/>
      <circle cx="365" cy="315" r="1.1"/>
      <circle cx="425" cy="270" r="0.9"/>
      <circle cx="490" cy="340" r="1.0"/>
      <circle cx="555" cy="290" r="1.1"/>
      <circle cx="615" cy="345" r="0.9"/>
      <circle cx="680" cy="265" r="1.0"/>
      <circle cx="745" cy="325" r="1.1"/>
      <circle cx="810" cy="275" r="0.9"/>
      <circle cx="870" cy="315" r="1.0"/>
      <circle cx="935" cy="285" r="1.1"/>
    </g>
    
    <!-- Layer 3: Medium stars -->
    <g opacity="1.0">
      <circle cx="40" cy="400" r="1.3"/>
      <circle cx="100" cy="450" r="1.2"/>
      <circle cx="170" cy="390" r="1.4"/>
      <circle cx="230" cy="460" r="1.2"/>
      <circle cx="300" cy="410" r="1.3"/>
      <circle cx="370" cy="470" r="1.4"/>
      <circle cx="430" cy="400" r="1.2"/>
      <circle cx="490" cy="460" r="1.3"/>
      <circle cx="560" cy="410" r="1.4"/>
      <circle cx="630" cy="470" r="1.2"/>
      <circle cx="690" cy="400" r="1.3"/>
      <circle cx="750" cy="460" r="1.4"/>
      <circle cx="820" cy="410" r="1.2"/>
      <circle cx="880" cy="470" r="1.3"/>
      <circle cx="940" cy="400" r="1.4"/>
      <!-- Additional stars for higher density -->
      <circle cx="15" cy="380" r="1.2"/>
      <circle cx="75" cy="430" r="1.3"/>
      <circle cx="135" cy="375" r="1.2"/>
      <circle cx="195" cy="425" r="1.4"/>
      <circle cx="265" cy="385" r="1.3"/>
      <circle cx="335" cy="445" r="1.2"/>
      <circle cx="400" cy="380" r="1.4"/>
      <circle cx="455" cy="435" r="1.3"/>
      <circle cx="525" cy="390" r="1.2"/>
      <circle cx="595" cy="440" r="1.4"/>
      <circle cx="660" cy="385" r="1.3"/>
      <circle cx="715" cy="435" r="1.2"/>
      <circle cx="785" cy="390" r="1.4"/>
      <circle cx="850" cy="445" r="1.3"/>
      <circle cx="915" cy="385" r="1.2"/>
      <circle cx="975" cy="440" r="1.4"/>
    </g>
    
    <!-- Layer 4: Slightly larger stars -->
    <g opacity="0.9">
      <circle cx="60" cy="550" r="1.8"/>
      <circle cx="130" cy="600" r="1.6"/>
      <circle cx="200" cy="540" r="1.7"/>
      <circle cx="270" cy="610" r="1.6"/>
      <circle cx="340" cy="560" r="1.8"/>
      <circle cx="410" cy="620" r="1.7"/>
      <circle cx="480" cy="550" r="1.6"/>
      <circle cx="550" cy="610" r="1.8"/>
      <circle cx="620" cy="560" r="1.7"/>
      <circle cx="690" cy="620" r="1.6"/>
      <circle cx="760" cy="550" r="1.8"/>
      <circle cx="830" cy="610" r="1.7"/>
      <circle cx="900" cy="560" r="1.6"/>
      <circle cx="970" cy="620" r="1.8"/>
      <!-- Additional stars for higher density -->
      <circle cx="35" cy="570" r="1.7"/>
      <circle cx="95" cy="515" r="1.6"/>
      <circle cx="165" cy="575" r="1.8"/>
      <circle cx="235" cy="530" r="1.7"/>
      <circle cx="305" cy="585" r="1.6"/>
      <circle cx="375" cy="535" r="1.8"/>
      <circle cx="445" cy="595" r="1.7"/>
      <circle cx="515" cy="535" r="1.6"/>
      <circle cx="585" cy="590" r="1.8"/>
      <circle cx="655" cy="545" r="1.7"/>
      <circle cx="725" cy="605" r="1.6"/>
      <circle cx="795" cy="555" r="1.8"/>
      <circle cx="865" cy="595" r="1.7"/>
      <circle cx="935" cy="545" r="1.6"/>
    </g>
    
    <!-- Layer 5: Random distribution -->
    <g>
      <circle cx="25" cy="680" r="1.0"/>
      <circle cx="95" cy="750" r="1.2"/>
      <circle cx="165" cy="690" r="0.8"/>
      <circle cx="235" cy="760" r="1.1"/>
      <circle cx="305" cy="700" r="0.9"/>
      <circle cx="375" cy="770" r="1.2"/>
      <circle cx="445" cy="710" r="0.8"/>
      <circle cx="515" cy="780" r="1.1"/>
      <circle cx="585" cy="720" r="0.9"/>
      <circle cx="655" cy="790" r="1.2"/>
      <circle cx="725" cy="730" r="0.8"/>
      <circle cx="795" cy="800" r="1.1"/>
      <circle cx="865" cy="740" r="0.9"/>
      <circle cx="935" cy="810" r="1.2"/>
      <!-- Additional stars for higher density -->
      <circle cx="45" cy="710" r="1.1"/>
      <circle cx="115" cy="675" r="0.9"/>
      <circle cx="185" cy="735" r="1.2"/>
      <circle cx="255" cy="695" r="0.8"/>
      <circle cx="325" cy="765" r="1.1"/>
      <circle cx="395" cy="705" r="0.9"/>
      <circle cx="465" cy="775" r="1.2"/>
      <circle cx="535" cy="715" r="0.8"/>
      <circle cx="605" cy="785" r="1.1"/>
      <circle cx="675" cy="725" r="0.9"/>
      <circle cx="745" cy="785" r="1.2"/>
      <circle cx="815" cy="725" r="0.8"/>
      <circle cx="885" cy="775" r="1.1"/>
      <circle cx="955" cy="725" r="0.9"/>
      <circle cx="55" cy="765" r="1.0"/>
      <circle cx="125" cy="720" r="1.2"/>
      <circle cx="195" cy="780" r="0.8"/>
      <circle cx="265" cy="715" r="1.1"/>
      <circle cx="335" cy="785" r="0.9"/>
    </g>
    
    <!-- Layer 6: Bottom stars -->
    <g opacity="0.7">
      <circle cx="50" cy="850" r="0.7"/>
      <circle cx="120" cy="890" r="0.9"/>
      <circle cx="190" cy="840" r="0.8"/>
      <circle cx="260" cy="900" r="1.0"/>
      <circle cx="330" cy="850" r="0.7"/>
      <circle cx="400" cy="910" r="0.9"/>
      <circle cx="470" cy="860" r="0.8"/>
      <circle cx="540" cy="920" r="1.0"/>
      <circle cx="610" cy="870" r="0.7"/>
      <circle cx="680" cy="930" r="0.9"/>
      <circle cx="750" cy="880" r="0.8"/>
      <circle cx="820" cy="940" r="1.0"/>
      <circle cx="890" cy="890" r="0.7"/>
      <circle cx="960" cy="950" r="0.9"/>
      <!-- Additional stars for higher density -->
      <circle cx="30" cy="860" r="0.8"/>
      <circle cx="85" cy="915" r="0.7"/>
      <circle cx="155" cy="865" r="0.9"/>
      <circle cx="225" cy="925" r="0.8"/>
      <circle cx="295" cy="870" r="1.0"/>
      <circle cx="365" cy="930" r="0.7"/>
      <circle cx="435" cy="875" r="0.9"/>
      <circle cx="505" cy="935" r="0.8"/>
      <circle cx="575" cy="880" r="1.0"/>
      <circle cx="645" cy="940" r="0.7"/>
      <circle cx="715" cy="885" r="0.9"/>
      <circle cx="785" cy="945" r="0.8"/>
      <circle cx="855" cy="875" r="1.0"/>
      <circle cx="925" cy="935" r="0.7"/>
      <circle cx="995" cy="880" r="0.9"/>
      <circle cx="15" cy="905" r="1.0"/>
      <circle cx="75" cy="855" r="0.8"/>
      <circle cx="145" cy="915" r="0.7"/>
      <circle cx="215" cy="865" r="0.9"/>
    </g>
    
    <!-- A few brighter stars scattered throughout -->
    <g>
      <circle cx="150" cy="150" r="2.2" opacity="1.0"/>
      <circle cx="420" cy="210" r="2.0" opacity="1.0"/>
      <circle cx="750" cy="120" r="2.3" opacity="1.0"/>
      <circle cx="250" cy="500" r="2.1" opacity="1.0"/>
      <circle cx="670" cy="450" r="2.2" opacity="1.0"/>
      <circle cx="900" cy="700" r="2.0" opacity="1.0"/>
      <circle cx="180" cy="800" r="2.3" opacity="1.0"/>
      <circle cx="550" cy="900" r="2.1" opacity="1.0"/>
      <!-- Additional brighter stars -->
      <circle cx="300" cy="100" r="2.2" opacity="1.0"/>
      <circle cx="650" cy="180" r="2.3" opacity="1.0"/>
      <circle cx="100" cy="350" r="2.0" opacity="1.0"/>
      <circle cx="850" cy="250" r="2.2" opacity="1.0"/>
      <circle cx="480" cy="650" r="2.1" opacity="1.0"/>
      <circle cx="250" cy="750" r="2.3" opacity="1.0"/>
      <circle cx="750" cy="825" r="2.0" opacity="1.0"/>
      <circle cx="950" cy="450" r="2.2" opacity="1.0"/>
    </g>
    
    <!-- Tiny random stars everywhere for added density -->
    <g opacity="0.5">
      <!-- Row 1 -->
      <circle cx="10" cy="25" r="0.5"/>
      <circle cx="70" cy="15" r="0.4"/>
      <circle cx="130" cy="35" r="0.5"/>
      <circle cx="190" cy="10" r="0.4"/>
      <circle cx="250" cy="30" r="0.5"/>
      <circle cx="310" cy="20" r="0.4"/>
      <circle cx="370" cy="40" r="0.5"/>
      <circle cx="430" cy="15" r="0.4"/>
      <circle cx="490" cy="35" r="0.5"/>
      <circle cx="550" cy="25" r="0.4"/>
      <circle cx="610" cy="45" r="0.5"/>
      <circle cx="670" cy="20" r="0.4"/>
      <circle cx="730" cy="40" r="0.5"/>
      <circle cx="790" cy="10" r="0.4"/>
      <circle cx="850" cy="30" r="0.5"/>
      <circle cx="910" cy="25" r="0.4"/>
      <circle cx="970" cy="45" r="0.5"/>
      
      <!-- Row 2 -->
      <circle cx="35" cy="100" r="0.5"/>
      <circle cx="95" cy="115" r="0.4"/>
      <circle cx="155" cy="95" r="0.5"/>
      <circle cx="215" cy="110" r="0.4"/>
      <circle cx="275" cy="90" r="0.5"/>
      <circle cx="335" cy="105" r="0.4"/>
      <circle cx="395" cy="85" r="0.5"/>
      <circle cx="455" cy="100" r="0.4"/>
      <circle cx="515" cy="120" r="0.5"/>
      <circle cx="575" cy="95" r="0.4"/>
      <circle cx="635" cy="110" r="0.5"/>
      <circle cx="695" cy="90" r="0.4"/>
      <circle cx="755" cy="105" r="0.5"/>
      <circle cx="815" cy="115" r="0.4"/>
      <circle cx="875" cy="95" r="0.5"/>
      <circle cx="935" cy="110" r="0.4"/>
      <circle cx="995" cy="100" r="0.5"/>
      
      <!-- Additional random tiny stars throughout -->
      <circle cx="45" cy="175" r="0.5"/>
      <circle cx="125" cy="205" r="0.4"/>
      <circle cx="205" cy="165" r="0.5"/>
      <circle cx="285" cy="195" r="0.4"/>
      <circle cx="365" cy="155" r="0.5"/>
      <circle cx="445" cy="185" r="0.4"/>
      <circle cx="525" cy="145" r="0.5"/>
      <circle cx="605" cy="175" r="0.4"/>
      <circle cx="685" cy="135" r="0.5"/>
      <circle cx="765" cy="165" r="0.4"/>
      <circle cx="845" cy="125" r="0.5"/>
      <circle cx="925" cy="155" r="0.4"/>
      
      <!-- Middle area -->
      <circle cx="55" cy="355" r="0.4"/>
      <circle cx="145" cy="335" r="0.5"/>
      <circle cx="235" cy="365" r="0.4"/>
      <circle cx="325" cy="345" r="0.5"/>
      <circle cx="415" cy="335" r="0.4"/>
      <circle cx="505" cy="365" r="0.5"/>
      <circle cx="595" cy="345" r="0.4"/>
      <circle cx="685" cy="335" r="0.5"/>
      <circle cx="775" cy="355" r="0.4"/>
      <circle cx="865" cy="365" r="0.5"/>
      <circle cx="955" cy="345" r="0.4"/>
      
      <!-- Lower area -->
      <circle cx="35" cy="525" r="0.4"/>
      <circle cx="125" cy="485" r="0.5"/>
      <circle cx="215" cy="505" r="0.4"/>
      <circle cx="305" cy="495" r="0.5"/>
      <circle cx="395" cy="515" r="0.4"/>
      <circle cx="485" cy="505" r="0.5"/>
      <circle cx="575" cy="485" r="0.4"/>
      <circle cx="665" cy="505" r="0.5"/>
      <circle cx="755" cy="515" r="0.4"/>
      <circle cx="845" cy="495" r="0.5"/>
      <circle cx="935" cy="505" r="0.4"/>
      
      <!-- Bottom area -->
      <circle cx="45" cy="655" r="0.5"/>
      <circle cx="135" cy="635" r="0.4"/>
      <circle cx="225" cy="665" r="0.5"/>
      <circle cx="315" cy="645" r="0.4"/>
      <circle cx="405" cy="675" r="0.5"/>
      <circle cx="495" cy="655" r="0.4"/>
      <circle cx="585" cy="635" r="0.5"/>
      <circle cx="675" cy="665" r="0.4"/>
      <circle cx="765" cy="645" r="0.5"/>
      <circle cx="855" cy="675" r="0.4"/>
      <circle cx="945" cy="655" r="0.5"/>
    </g>
  </g>
</svg>
